<?xml version="1.0" encoding="iso-8859-1"?>
<!-- Generator: Adobe Illustrator 19.0.0, SVG Export Plug-In . SVG Version: 6.00 Build 0)  -->
<svg version="1.1" id="Layer_1" xmlns="http://www.w3.org/2000/svg" xmlns:xlink="http://www.w3.org/1999/xlink" x="0px" y="0px"
	 viewBox="0 0 496 496" style="enable-background:new 0 0 496 496;" xml:space="preserve">
<path style="fill:#F74FAF;" d="M496,285.6c0,73.6-111.2,2.4-248,2.4S0,359.2,0,285.6S111.2,28.8,248,28.8S496,212,496,285.6z"/>
<path style="fill:#ED3596;" d="M248,28.8c136.8,0,248,182.4,248,256.8S384.8,288,248,288"/>
<path style="fill:#BC005E;" d="M496,285.6c0,73.6-111.2,133.6-248,133.6S0,359.2,0,285.6S111.2,51.2,248,51.2S496,212,496,285.6z"/>
<path style="fill:#DD1F83;" d="M496,285.6c0,73.6-111.2,2.4-248,2.4S0,359.2,0,285.6S111.2,51.2,248,51.2S496,212,496,285.6z"/>
<path style="fill:#CC1B70;" d="M248,51.2c136.8,0,248,160.8,248,234.4S384.8,288,248,288"/>
<path id="SVGCleanerId_0" style="fill:#F2D6A7;" d="M390.4,381.6c0,52.8-64,79.2-142.4,79.2s-142.4-26.4-142.4-79.2s64-68,142.4-68
	C326.4,313.6,390.4,328.8,390.4,381.6z"/>
<path style="fill:#D6B47C;" d="M390.4,381.6c0,52.8-64,85.6-142.4,85.6s-142.4-32.8-142.4-85.6s64-68,142.4-68
	S390.4,328.8,390.4,381.6z"/>
<g>
	<path id="SVGCleanerId_0_1_" style="fill:#F2D6A7;" d="M390.4,381.6c0,52.8-64,79.2-142.4,79.2s-142.4-26.4-142.4-79.2
		s64-68,142.4-68C326.4,313.6,390.4,328.8,390.4,381.6z"/>
</g>
<path style="fill:#E5C58C;" d="M248,313.6c78.4,0,142.4,15.2,142.4,68s-64,79.2-142.4,79.2"/>
<path style="fill:#D6B47C;" d="M248,340c75.2,0,136.8,0,141.6,47.2c0-2.4,0.8-4,0.8-6.4c0-52.8-64-68-142.4-68s-142.4,15.2-142.4,68
	c0,2.4,0,4,0.8,6.4C111.2,340,172.8,340,248,340z"/>
<circle style="fill:#EAD0DF;" cx="248" cy="162.4" r="89.6"/>
<path style="fill:#DDBAD0;" d="M248,72.8c49.6,0,89.6,40,89.6,89.6S297.6,252,248,252"/>
<path style="fill:#EAD0DF;" d="M98.4,204c0-27.2-11.2-52-29.6-68.8C26.4,188,0,249.6,0,285.6c0,5.6,0.8,9.6,1.6,13.6h0.8
	C55.2,299.2,98.4,256.8,98.4,204z"/>
<path style="fill:#DDBAD0;" d="M0.8,292.8c0,2.4,0.8,4,1.6,6.4h0.8c52.8,0,96-43.2,96-96c0-24.8-9.6-47.2-24.8-64
	C31.2,186.4,4,240.8,0,278.4l0,0c0,2.4,0,4.8,0,7.2C0,288,0,290.4,0.8,292.8L0.8,292.8z"/>
<path style="fill:#EAD0DF;" d="M397.6,204c0-27.2,11.2-52,29.6-68.8c42.4,53.6,68.8,115.2,68.8,151.2c0,5.6-0.8,9.6-1.6,13.6h-0.8
	C440.8,299.2,397.6,256.8,397.6,204z"/>
<path style="fill:#DDBAD0;" d="M495.2,292.8c0,2.4-0.8,4-1.6,6.4h-0.8c-52.8,0-96-43.2-96-96c0-24.8,9.6-47.2,24.8-64
	c42.4,46.4,69.6,101.6,72.8,138.4l0,0c0,2.4,0,4.8,0,7.2C496,288,496,290.4,495.2,292.8L495.2,292.8z"/>
<path style="fill:#E5C58C;" d="M197.6,371.2c0,12.8-7.2,28.8-15.2,28.8s-15.2-16-15.2-28.8s7.2-24,15.2-24S197.6,358.4,197.6,371.2z
	"/>
<ellipse style="fill:#495156;" cx="182.4" cy="371.2" rx="15.2" ry="24"/>
<path style="fill:#293033;" d="M182.4,348c8.8,0,15.2,10.4,15.2,24s-7.2,24-15.2,24"/>
<path style="fill:#F4E1C6;" d="M203.2,398.4c0,2.4-9.6,2.4-20.8,2.4s-20.8,0-20.8-2.4s9.6-4.8,20.8-4.8
	C193.6,393.6,203.2,396,203.2,398.4z"/>
<path style="fill:#E5C58C;" d="M329.6,371.2c0,12.8-7.2,28.8-15.2,28.8s-15.2-16-15.2-28.8s7.2-24,15.2-24S329.6,358.4,329.6,371.2z
	"/>
<ellipse style="fill:#495156;" cx="313.6" cy="371.2" rx="15.2" ry="24"/>
<path style="fill:#293033;" d="M313.6,348c8.8,0,15.2,10.4,15.2,24s-7.2,24-15.2,24"/>
<path style="fill:#F4E1C6;" d="M335.2,398.4c0,2.4-9.6,2.4-20.8,2.4c-11.2,0-20.8,0-20.8-2.4s9.6-4.8,20.8-4.8
	S335.2,396,335.2,398.4z"/>
<g>
</g>
<g>
</g>
<g>
</g>
<g>
</g>
<g>
</g>
<g>
</g>
<g>
</g>
<g>
</g>
<g>
</g>
<g>
</g>
<g>
</g>
<g>
</g>
<g>
</g>
<g>
</g>
<g>
</g>
</svg>
